<svg aria-hidden="true" style="position:absolute;width:0;height:0;overflow:hidden" xmlns="http://www.w3.org/2000/svg">
  <defs>
    <symbol id="canberra" viewBox="0 0 43 32">
      <path fill="#0a8bfe" style="fill:var(--color1, #0a8bfe)" d="M42.526 18.673h-9.569l-8.429-6.208V.824c0-.455-.365-.823-.816-.823s-.816.368-.816.823V2.47h-2.449V.824c0-.455-.365-.823-.816-.823s-.816.368-.816.823v6.347c0 .033.015.06.018.092-.004.032-.018.059-.018.092v5.11l-8.429 6.208H.817a.819.819 0 0 0-.816.823V31.02c0 .455.365.823.816.823h41.709a.819.819 0 0 0 .816-.823V19.496a.819.819 0 0 0-.816-.823zm-22.123 0h-1.18l1.205-5.587c.004-.019-.002-.036.001-.054.009-.049.018-.098.018-.149V8.178h2.449v4.705c0 .071.011.14.028.207.004.017-.001.033.004.049l1.586 5.534H22.94a.819.819 0 0 0-.816.823v2.469h-.902v-2.469a.819.819 0 0 0-.816-.823zm-7.25 0 5.23-3.852-.831 3.852h-4.399zm13.059 0-1.064-3.712 5.04 3.712h-3.976zM22.895 4.116v2.416h-2.449V4.117h2.449zM1.632 20.319h8.203v9.878h-.816v-4.116c0-.455-.365-.823-.816-.823s-.816.368-.816.823v4.116h-.816v-4.116c0-.455-.365-.823-.816-.823s-.816.368-.816.823v4.116h-.816v-4.116c0-.455-.365-.823-.816-.823s-.816.368-.816.823v4.116h-.857v-9.878zm9.836 0h8.119v2.469c0 .455.365.823.816.823h2.535a.819.819 0 0 0 .816-.823v-2.469h8.119v9.878h-.816v-8.232c0-.455-.365-.823-.816-.823s-.816.368-.816.823v8.232h-.816v-8.232c0-.455-.365-.823-.816-.823s-.816.368-.816.823v8.232h-.816v-8.232c0-.455-.365-.823-.816-.823s-.816.368-.816.823v8.232h-.816v-4.116c0-.455-.365-.823-.816-.823s-.816.368-.816.823v4.116h-.816v-4.116c0-.455-.365-.823-.816-.823s-.816.368-.816.823v4.116h-.816v-8.232c0-.455-.365-.823-.816-.823s-.816.368-.816.823v8.232h-.816v-8.232c0-.455-.365-.823-.816-.823s-.816.368-.816.823v8.232h-.816v-8.232c0-.455-.365-.823-.816-.823s-.816.368-.816.823v8.232h-.816v-9.878zm30.241 9.878h-.857v-4.116c0-.455-.365-.823-.816-.823s-.816.368-.816.823v4.116h-.816v-4.116c0-.455-.365-.823-.816-.823s-.816.368-.816.823v4.116h-.816v-4.116c0-.455-.365-.823-.816-.823s-.816.368-.816.823v4.116h-.816v-9.878h8.203v9.878z"/>
    </symbol>
    <symbol id="melbourne" viewBox="0 0 30 32">
      <path fill="#0a8bfe" style="fill:var(--color1, #0a8bfe)" d="m25.083.315.557 5.394.117-.407.473.313.081.054a31.115 31.115 0 0 1 1.037.719c.254.185.53.44.735.64a14.865 14.865 0 0 1 .332.336l.02.022.006.006.002.002-.286.266.286-.266.104.112v2.916l.346.261v3.566l.346.261v17.284l-18.893.001V8.834h2.945V4.603l1.44-1.179.244.18-.232.314.232-.314.022.017.061.046.223.171c.187.145.445.349.726.585.555.464 1.235 1.075 1.642 1.607.456.595.797 1.379 1.02 1.993a13.251 13.251 0 0 1 .324 1.019l.017.065.004.018.001.005v.001l-.379.094.379-.094.011.046V29.71h.888V14.464l.346-.174v-3.486l.346-.348v-.55h-.051v-.78h.051V7.577l.124-.116.266.285-.266-.286.033-.031.092-.084c.078-.071.188-.168.315-.278.252-.217.583-.49.875-.688.25-.169.532-.364.752-.517l.271-.189.521-.365.239.65.471-5.638.777-.008zm-3.692 9.592v.746h6.377v-.746h-6.377zm6.377-.78v-1.31c-.058-.06-.138-.141-.229-.23a6.594 6.594 0 0 0-.649-.568 27.624 27.624 0 0 0-.678-.475l-.378 1.311-.763-.068-.335-3.241-.27 3.233-.755.102-.498-1.352c-.216.149-.484.334-.724.497a9.937 9.937 0 0 0-.804.633 17.97 17.97 0 0 0-.295.26v1.207h6.377zm-6.724 2.306v1.003h7.07v-1.003h-7.07zm0 1.784v.873h7.07v-.873h-7.07zm-.192 1.653-.153.077v.925h7.762v-.971l-.041-.031h-7.568zm-.154 1.782v1.002h7.762v-1.002h-7.762zm0 1.782v1.002h7.762v-1.002h-7.762zm0 1.782v1.002h7.762v-1.002h-7.762zm0 1.782v1h7.762v-1h-7.762zm0 1.779v1.003h7.762v-1.003h-7.762zm0 1.784v1.002h7.762v-1.002h-7.762zm0 1.782v3.673h2.235v-2.8h3.041v2.8h2.486v-3.673h-7.762zm3.015 1.653v2.019h1.481v-2.019h-1.481zm-10.986.746h4.132v1.274h2.808v-.525H18.25V9.274l-.008-.031a12.13 12.13 0 0 0-.303-.953c-.216-.591-.524-1.286-.907-1.786-.35-.457-.969-1.02-1.523-1.483a26.808 26.808 0 0 0-.704-.567l-.051-.04-.682.558v5.163h-1.488v-.522h-1.456v21.401h1.6V29.74zm.78.78v.493h2.571v-.493h-2.571zM2.563 7.599H8.2l1.192.79v23.404H.333v-2.956h.96c-.028-.166-.063-.372-.102-.613A86.062 86.062 0 0 1 .8 25.558c-.277-2.121-.54-4.781-.467-6.876a41.54 41.54 0 0 1 1.015-7.876c.218-.941.429-1.676.587-2.179a18.896 18.896 0 0 1 .259-.764l.004-.011.001-.003v-.001l.364.14-.364-.14.096-.25h.268zm6.049 20.617v-.745H3.587v-2.053h5.025v-.748H3.587v-2.053h5.025v-.746H3.587v-2.053h5.025v-.746H3.587v-2.053h5.025v-.748H3.587v-2.053h5.025v-.747H3.587v-2.053h5.025V8.809l-.647-.429H2.838c-.041.119-.095.28-.158.481a29.09 29.09 0 0 0-.571 2.122 40.716 40.716 0 0 0-.996 7.727c-.071 2.028.184 4.634.46 6.748a86.09 86.09 0 0 0 .519 3.42l.037.209.01.054.002.013.001.003v.001l.085.461H1.114v1.396h7.499v-.745H3.588v-2.053h5.025zm0 .78H4.367v.493h4.245v-.493zm0-2.306v-.493H4.367v.493h4.245zm0-3.294H4.367v.493h4.245v-.493zm0-2.306v-.493H4.367v.493h4.245zm0-2.799v-.493H4.367v.493h4.245zm0-3.294H4.367v.493h4.245v-.493zm0-2.307v-.493H4.367v.493h4.245zm4.505 1.781h-.39v2.053h4.132v-2.053h-3.742zm.39 1.273v-.493h2.571v.493h-2.571zm-.78-4.327h4.132v2.053h-4.132v-2.053zm.78.78v.493h2.571v-.493h-2.571zm-.39 5.329h-.39v2.053h4.132v-2.053h-3.742zm.39 1.273v-.493h2.571v.493h-2.571zm-.78 1.782h4.132v2.053h-4.132v-2.053zm.78.78v.493h2.571v-.493h-2.571zm-.78 2.273h4.132v2.053h-4.132v-2.053zm.78.78v.493h2.571v-.493h-2.571zm-.39 2.274h-.39v2.053h4.132v-2.053h-3.742zm.39 1.273v-.493h2.571v.493h-2.571z"/>
    </symbol>
    <symbol id="adelaide" viewBox="0 0 31 32">
      <path fill="#0a8bfe" style="fill:var(--color1, #0a8bfe)" d="M29.654 28.25h.617c.356 0 .644.28.644.625v2.5a.635.635 0 0 1-.644.625H.644A.635.635 0 0 1 0 31.375v-2.5c0-.345.288-.625.644-.625h.617V17.188H.644c-.356 0-.644-.28-.644-.625s.288-.625.644-.625h.617v-1.813c0-.322.251-.587.574-.621-.091-.858.266-1.73 1.012-2.348l1.936-1.603c.241-.2.596-.2.836 0l1.936 1.603c.107.089.206.184.298.283v-.802c0-.345.288-.625.644-.625h.521c.248-2.426 1.925-4.451 4.201-5.268V2.563c0-.345.288-.625.644-.625h.952V.626c0-.345.288-.625.644-.625s.644.28.644.625v1.312h.952c.355 0 .644.28.644.625v2.181c2.275.817 3.952 2.842 4.201 5.268h.521c.356 0 .644.28.644.625v.802c.091-.099.19-.194.298-.283l1.936-1.603c.241-.2.595-.2.836 0l1.935 1.603c.746.618 1.103 1.49 1.012 2.348a.632.632 0 0 1 .574.621v1.813h.617c.356 0 .644.28.644.625s-.288.625-.644.625h-.617V28.25zm-3.295 0h2.007V17.188h-5.303v.758c.304.05.536.306.536.616s-.232.565-.536.615v9.073h2.007v-7.151c0-.345.288-.625.644-.625s.644.28.644.625v7.151zm-6.725-3.099v3.099h2.141v-9.063H9.14v9.063h2.141v-3.099h-.153c-.355 0-.644-.28-.644-.625s.289-.625.644-.625h.203c.31-1.939 2.043-3.427 4.126-3.427s3.816 1.489 4.127 3.427h.203c.355 0 .644.28.644.625s-.289.625-.644.625h-.153zm-6.991-1.25h5.63c-.294-1.245-1.444-2.178-2.815-2.178s-2.521.932-2.815 2.178zm9.132-9.836v-2.804h-5.677l5.677 2.804zm-8.388 1.645H9.14v2.228h12.635V15.71h-4.247c-.275.856-1.099 1.479-2.071 1.479s-1.796-.623-2.07-1.479zm1.19-.626c0 .471.395.854.88.854s.88-.383.88-.854-.395-.854-.88-.854-.88.383-.88.854zm2.951-.624h2.205l-4.276-2.112-4.276 2.112h2.205c.275-.856 1.099-1.479 2.07-1.479s1.796.623 2.071 1.479zm5.535 1.24v.239h5.303v-1.188h-4.868a.612.612 0 0 1 .101.335.63.63 0 0 1-.536.615zm2.652-4.85-1.518 1.257c-.455.377-.65.896-.547 1.393h4.13c.103-.498-.092-1.017-.547-1.393l-1.517-1.257zM16.41 3.187h-1.904v1.237a6.636 6.636 0 0 1 1.904 0V3.187zm4.191 6.824c-.318-2.48-2.503-4.406-5.143-4.406s-4.825 1.926-5.143 4.407a.65.65 0 0 1 .493.234h3.859a.649.649 0 0 1 .502-.234h5.432zm-5.928 1.024h-3.871a.65.65 0 0 1-.497.227H9.14v2.804l5.643-2.929a.663.663 0 0 1-.11-.101zm-9.472-.185-1.518 1.257c-.455.377-.65.896-.547 1.393h4.129c.103-.498-.092-1.017-.547-1.393L5.201 10.85zm2.216 3.9H2.549v1.188h5.303v-.239a.63.63 0 0 1-.535-.615c0-.123.037-.238.101-.335zm.435 2.438H2.549V28.25h2.007v-7.151c0-.345.288-.625.644-.625s.644.28.644.625v7.151h2.007v-9.073c-.304-.05-.535-.306-.535-.615s.231-.565.535-.616v-.758zM1.288 30.75h28.339V29.5H18.033c-.355 0-.644-.28-.644-.625s.289-.625.644-.625h.312v-3.099h-5.777v3.099h.312c.356 0 .644.28.644.625s-.288.625-.644.625H1.287v1.25z"/>
    </symbol>
    <symbol id="goldcoast" viewBox="0 0 21 32">
      <path fill="#0a8bfe" style="fill:var(--color1, #0a8bfe)" d="M4.494.66a.379.379 0 1 0-.758 0v.602h-.639a.379.379 0 1 0 0 .758h.639v.646L1.27 9.465l.048.017-.003.005-.519.75-.001.116-.112 11.686-.68.711v8.944h20.778v-8.953l-.566-.545V10.818l-.036-.077-.829-1.759-.028.036-2.386-6.895V2.02h.639a.379.379 0 1 0 0-.758h-.639V.66a.379.379 0 1 0-.758 0v.602h-.639a.379.379 0 1 0 0 .758h.639v.111l-2.166 7.301-.888 1.59v7.475l-2.521-2.935v-.789h.638a.379.379 0 1 0 0-.758h-.638v-.602a.379.379 0 1 0-.758 0v.602h-.639a.379.379 0 1 0 0 .758h.639v.794L7.55 18.334v-1.387h-.113v-6.463l-.407-.785.044-.016-2.578-7.016v-.646h.638a.379.379 0 1 0 0-.758h-.638V.661zm12.09 2.767 2.183 6.306-.554.712v1.06h-2.974v-.687l-.036-.077-.484-1.027 1.865-6.287zM6.22 9.561l-.788.868v1.076H2.571v-1.289l-.54-.625 2.086-5.752 2.102 5.722zm.57 10.993v6.005H.763v-3.505l.677-.708.001-.15.016-1.643h5.22v.018l.015-.018h.098zM.762 30.936v-3.617h6.027v3.617h-.825v-.643a1.963 1.963 0 0 0-3.926 0v.643H.761zm4.444 0H2.798v-.643a1.204 1.204 0 1 1 2.408 0v.643zm2.342 0v-3.617h5.575v3.617h-.825v-.054a2.973 2.973 0 0 0-1.358-2.497 1.03 1.03 0 0 0-1.09-.017 3.046 3.046 0 0 0-1.477 2.568h-.825zm1.584 0a2.29 2.29 0 0 1 1.109-1.918.27.27 0 0 1 .287.004 2.216 2.216 0 0 1 1.012 1.86v.054H9.132zm4.75 0v-3.617h6.14v3.617h-1.39v-.643a1.963 1.963 0 0 0-3.926 0v.643h-.825zm3.992-.643v.643h-2.408v-.643a1.204 1.204 0 1 1 2.408 0zm-3.992-3.733v-6.005h5.575v1.964l.566.545v3.496h-6.14zm-6.334 0v-6.005h5.575v6.005H7.548zm-.872-7.039v.274H1.463l.089-9.318.108-.156.153.177v1.765h4.378v-1.542l.327-.36.159.306v8.853zm6.447.275H7.548v-.274l2.679-3.23 2.896 3.371v.134zm6.334 0h-5.575v-8.575l.384-.687.215.456v1.276h4.491v-1.558l.219-.282.266.564v8.807zM3.25 14.283v4.145a.379.379 0 1 1-.758 0v-4.145a.379.379 0 1 1 .758 0zm2.036 0v4.145a.379.379 0 1 1-.758 0v-4.145a.379.379 0 1 1 .758 0zm10.253-.379c-.21 0-.379.17-.379.379v4.145a.379.379 0 1 0 .758 0v-4.145c0-.21-.17-.379-.379-.379zm2.415.379v4.145a.379.379 0 1 1-.758 0v-4.145a.379.379 0 1 1 .758 0zm-.928 6.909-.259-.216-.846.8a3.879 3.879 0 0 0-1.214 2.818v.977h4.152v-1.035a3.88 3.88 0 0 0-1.394-2.978l-.439-.366zm-.584 1.136.357-.337.18.15a3.12 3.12 0 0 1 1.121 2.395v.277h-2.634v-.219c0-.858.353-1.678.976-2.267zM3.873 20.976l.698.582a3.88 3.88 0 0 1 1.394 2.978v1.035H1.813v-.977c0-1.066.439-2.086 1.214-2.818l.846-.8zm.032 1.015-.357.337a3.12 3.12 0 0 0-.976 2.267v.219h2.634v-.277a3.12 3.12 0 0 0-1.121-2.395l-.18-.15zm5.894-.297a1.843 1.843 0 0 1 .945.025l-.325.493a1.048 1.048 0 0 0-.286-.014l-.333-.505zm1.446 1.265a1.029 1.029 0 0 0-.177-.353l.344-.521c.264.229.454.533.536.874h-.703zm.702.759a1.68 1.68 0 0 1-.49.834l-.43-.651c.049-.056.092-.117.129-.183h.791zm-1.724.545c.044 0 .087-.003.13-.008l.451.684a1.847 1.847 0 0 1-1.068.028l.465-.705h.022zm-.738-.293-.425.645a1.69 1.69 0 0 1-.562-.898h.792c.052.094.118.179.196.253zm-.284-1.011h-.703c.089-.372.307-.7.609-.935l.335.507a1.023 1.023 0 0 0-.241.427zm1.022-2.072c-1.383 0-2.528 1.085-2.528 2.452s1.145 2.452 2.528 2.452 2.528-1.085 2.528-2.452-1.145-2.452-2.528-2.452zm0 2.067c.178 0 .299.136.299.275s-.121.275-.299.275-.299-.136-.299-.275.121-.275.299-.275z"/>
    </symbol>
    <symbol id="brisbane" viewBox="0 0 32 32">
      <path fill="#0a8bfe" style="fill:var(--color1, #0a8bfe)" d="M30.266 19.499V16.42h-9.08V6.671h-2.522V4.618h-1.15l-1.009-3.079h-.364V0h-1.009v1.539h-.364l-1.009 3.079h-1.15v2.053h-2.522v9.749h-9.08v3.079H-.002v12.315h31.275V19.499h-1.009zM18.16 26.683h-5.044v-3.592c0-1.415 1.131-2.566 2.522-2.566s2.522 1.151 2.522 2.566v3.592zm-2.523-7.184c-1.947 0-3.531 1.612-3.531 3.592v3.592H9.079v-6.406l6.558-4.765 6.558 4.765v6.406h-3.027v-3.592c0-1.98-1.584-3.592-3.531-3.592zm-2.522-7.184c0-1.415 1.131-2.566 2.522-2.566s2.522 1.151 2.522 2.566c0 1.14-.753 2.134-1.81 2.452l-.712-.517-.712.517a2.563 2.563 0 0 1-1.81-2.452zm10.089 8.21h7.062v6.158h-7.062v-6.158zm6.053-3.079v2.053h-6.396l-1.675-1.217v-.835h8.071zm-13.76-14.88h.282l.672 2.053h-1.627l.672-2.053zM13.62 5.644h4.035V6.67H13.62V5.644zm-1.009 2.053h7.566v9.852l-2.868-2.083a3.61 3.61 0 0 0 1.859-3.151c0-1.981-1.584-3.592-3.531-3.592s-3.531 1.611-3.531 3.592c0 1.34.744 2.535 1.858 3.15l-2.867 2.084V7.697h1.513zM2.018 17.446h8.071v.835l-1.675 1.217H2.018v-2.053zm6.053 3.079v6.158H1.009v-6.158h7.062zM4.035 30.788H3.026v-1.026h1.009v1.026zm4.036 0H7.062v-1.026h1.009v1.026zm4.035 0h-1.009v-1.026h1.009v1.026zm4.036 0h-1.009v-1.026h1.009v1.026zm4.035 0h-1.009v-1.026h1.009v1.026zm4.036 0h-1.009v-1.026h1.009v1.026zm4.035 0h-1.009v-1.026h1.009v1.026zm1.009 0v-2.053H26.23v2.053h-1.009v-2.053h-3.027v2.053h-1.009v-2.053h-3.027v2.053h-1.009v-2.053h-3.027v2.053h-1.009v-2.053h-3.027v2.053H9.077v-2.053H6.05v2.053H5.041v-2.053H2.014v2.053H1.005v-3.079h29.257v3.079h-1.009z"/>
    </symbol>
    <symbol id="sydney" viewBox="0 0 26 32">
      <path fill="#0a8bfe" style="fill:var(--color1, #0a8bfe)" d="M25.303 22.362h-.429V21.12l.853-5.908a.422.422 0 0 0-.424-.484h-.858a5.582 5.582 0 0 0-3.675 1.363l1.094-5.953a.423.423 0 0 0-.422-.5h-.858a7.29 7.29 0 0 0-3.88 1.107c-.835-1.133-1.929-2.054-3.193-2.688s-2.661-.965-4.078-.963h-.858a.438.438 0 0 0-.324.146.423.423 0 0 0-.1.338l.459 3.176a7.35 7.35 0 0 0-3.894-1.115h-.858a.439.439 0 0 0-.329.152.429.429 0 0 0-.092.348l.591 3.217a5.651 5.651 0 0 0-1.885-.324H.428a.443.443 0 0 0-.342.169.415.415 0 0 0-.07.372l1.559 5.397h-.289c-.114 0-.223.045-.303.124s-.126.187-.126.3v2.969H.428c-.114 0-.223.045-.303.124s-.126.187-.126.3v1.697c0 .113.045.22.126.3s.19.124.303.124h24.874c.114 0 .223-.045.303-.124s.126-.187.126-.3v-1.697c0-.113-.045-.22-.126-.3s-.19-.124-.303-.124zm-7.291 0V21.09a.43.43 0 0 0-.429-.424h-1.715c-.114 0-.223.045-.303.124s-.126.187-.126.3v1.272h-1.715V21.09c0-.113-.045-.22-.126-.3s-.19-.124-.303-.124H11.58c-.114 0-.223.045-.303.124s-.126.187-.126.3v1.272h-4.54l-3.305-3.269a.432.432 0 0 0-.303-.124h-.429v-.848h2.144a.437.437 0 0 0 .238-.071l1.179-.777h2.714l2.882 2.443a.432.432 0 0 0 .279.102h10.142l1.866 1.476v1.069h-6.004zm-.857 0h-.858v-.848h.858v.848zm-4.289 0h-.858v-.848h.858v.848zm4.718-3.393h-1.715v-2.608l1.715 2.121v.487zm-2.574 0H12.9l2.11-2.608v2.608zm9.435-3.393h.363l-.682 4.719-1.558-1.233a.434.434 0 0 0-.268-.093h-2.395c.28-.977.875-1.837 1.694-2.45s1.818-.944 2.845-.943zm-3.516-5.09-1.275 6.935a5.422 5.422 0 0 0-.622 1.494l-.592-.731V16a8.796 8.796 0 0 0-1.262-4.548 6.438 6.438 0 0 1 3.407-.966h.344zM9.435 7.941c1.07 0 2.13.208 3.119.613s1.887.998 2.644 1.747c.757.748 1.357 1.637 1.766 2.615s.62 2.026.62 3.084v1.124l-1.809-2.237a.44.44 0 0 0-.521-.117.438.438 0 0 0-.149.117l-3.154 3.899-1.496-1.268-1.383-9.577h.363zm-4.717 2.545a6.48 6.48 0 0 1 4.062 1.429l.688 4.766-.182-.154a.432.432 0 0 0-.279-.102H6.005a.437.437 0 0 0-.238.071l-.257.169-1.136-6.179h.344zm-2.574 3.393c.716 0 1.424.161 2.068.471l.52 2.827-.144.095H2.145a.427.427 0 0 0-.158.03l-.989-3.423h1.147zm-.429 5.938h1.109l2.573 2.545H1.715v-2.545zm23.159 4.242H.858v-.848h24.016v.848z"/>
    </symbol>
  </defs>
</svg>
