<svg aria-hidden="true" style="position: absolute; width: 0; height: 0; overflow: hidden;" version="1.1" xmlns="http://www.w3.org/2000/svg" xmlns:xlink="http://www.w3.org/1999/xlink">
<defs>
<symbol id="icon-Frame-6" viewBox="0 0 43 32">
<path fill="#0a8bfe" style="fill: var(--color1, #0a8bfe)" d="M42.526 18.673h-9.569l-8.429-6.209v-11.641c0-0.001 0-0.003 0-0.004 0-0.451-0.365-0.817-0.816-0.819h-0c-0.451 0.002-0.816 0.368-0.816 0.819 0 0.001 0 0.003 0 0.004v-0 1.646h-2.449v-1.646c0-0.001 0-0.003 0-0.004 0-0.451-0.365-0.817-0.816-0.819h-0c-0.451 0.002-0.816 0.368-0.816 0.819 0 0.001 0 0.003 0 0.004v-0 6.347c0 0.032 0.015 0.060 0.019 0.092-0.004 0.032-0.019 0.060-0.019 0.092v5.11l-8.428 6.208h-9.57c-0.451 0.002-0.816 0.368-0.816 0.819 0 0.001 0 0.003 0 0.004v-0 11.524c0 0.455 0.365 0.823 0.816 0.823h41.709c0.451-0.002 0.816-0.368 0.816-0.819 0-0.001 0-0.003 0-0.004v0-11.524c0-0.001 0-0.003 0-0.004 0-0.451-0.365-0.817-0.816-0.819h-0zM20.403 18.673h-1.18l1.205-5.587c0.004-0.019-0.002-0.036 0.001-0.055 0.009-0.049 0.017-0.098 0.017-0.149v-4.705h2.449v4.705c0 0.070 0.011 0.14 0.028 0.207 0.004 0.017-0.001 0.033 0.004 0.050l1.585 5.534h-1.574c-0.451 0.002-0.816 0.368-0.816 0.819 0 0.001 0 0.003 0 0.004v-0 2.47h-0.902v-2.47c0-0.001 0-0.003 0-0.004 0-0.452-0.365-0.818-0.816-0.819h-0zM13.153 18.673l5.229-3.852-0.83 3.852h-4.399zM26.212 18.673l-1.064-3.712 5.040 3.712h-3.977zM22.895 4.115v2.415h-2.449v-2.415h2.449zM1.632 20.319h8.203v9.878h-0.816v-4.115c0-0.001 0-0.003 0-0.004 0-0.452-0.365-0.818-0.816-0.819h-0c-0.451 0.002-0.816 0.368-0.816 0.819 0 0.001 0 0.003 0 0.004v-0 4.115h-0.816v-4.115c0-0.001 0-0.002 0-0.004 0-0.451-0.365-0.818-0.816-0.819h-0c-0.451 0.002-0.816 0.368-0.816 0.819 0 0.001 0 0.003 0 0.004v-0 4.115h-0.816v-4.115c0-0.001 0-0.003 0-0.004 0-0.451-0.365-0.817-0.816-0.819h-0c-0.451 0.002-0.816 0.368-0.816 0.819 0 0.001 0 0.003 0 0.004v-0 4.115h-0.857v-9.877zM11.468 20.319h8.119v2.47c0 0.455 0.365 0.823 0.816 0.823h2.535c0.451-0.002 0.816-0.368 0.816-0.819 0-0.001 0-0.003 0-0.004v0-2.47h8.119v9.878h-0.816v-8.232c0-0.001 0-0.002 0-0.004 0-0.451-0.365-0.818-0.816-0.819h-0c-0.451 0.002-0.816 0.368-0.816 0.819 0 0.001 0 0.003 0 0.004v-0 8.232h-0.816v-8.232c0-0.001 0-0.002 0-0.004 0-0.451-0.365-0.818-0.816-0.819h-0c-0.451 0.002-0.816 0.368-0.816 0.819 0 0.001 0 0.003 0 0.004v-0 8.232h-0.816v-8.232c0-0.001 0-0.002 0-0.004 0-0.451-0.365-0.818-0.816-0.819h-0c-0.451 0.002-0.816 0.368-0.816 0.819 0 0.001 0 0.003 0 0.004v-0 8.232h-0.816v-4.115c0-0.001 0-0.003 0-0.004 0-0.451-0.365-0.818-0.816-0.819h-0c-0.451 0.002-0.817 0.368-0.817 0.819 0 0.001 0 0.003 0 0.004v-0 4.115h-0.816v-4.115c0-0.001 0-0.002 0-0.004 0-0.452-0.365-0.818-0.816-0.819h-0c-0.451 0.002-0.816 0.368-0.816 0.819 0 0.001 0 0.003 0 0.004v-0 4.115h-0.816v-8.231c0-0.001 0-0.003 0-0.004 0-0.451-0.365-0.818-0.816-0.819h-0c-0.451 0.002-0.816 0.368-0.816 0.819 0 0.001 0 0.003 0 0.004v-0 8.232h-0.816v-8.232c0-0.001 0-0.002 0-0.004 0-0.451-0.365-0.818-0.816-0.819h-0c-0.451 0.002-0.816 0.368-0.816 0.819 0 0.001 0 0.003 0 0.004v-0 8.232h-0.816v-8.232c0-0.001 0-0.002 0-0.004 0-0.451-0.365-0.818-0.816-0.819h-0c-0.451 0.002-0.816 0.368-0.816 0.819 0 0.001 0 0.003 0 0.004v-0 8.232h-0.816v-9.878zM41.709 30.197h-0.857v-4.115c0-0.001 0-0.003 0-0.004 0-0.451-0.365-0.817-0.816-0.819h-0c-0.451 0.002-0.816 0.368-0.816 0.819 0 0.001 0 0.003 0 0.004v-0 4.115h-0.816v-4.115c0-0.001 0-0.002 0-0.004 0-0.451-0.365-0.818-0.816-0.819h-0c-0.451 0.002-0.816 0.368-0.816 0.819 0 0.001 0 0.003 0 0.004v-0 4.115h-0.816v-4.115c0-0.001 0-0.002 0-0.004 0-0.451-0.365-0.818-0.816-0.819h-0c-0.451 0.002-0.816 0.368-0.816 0.819 0 0.001 0 0.003 0 0.004v-0 4.115h-0.816v-9.877h8.203v9.878z"></path>
</symbol>
<symbol id="icon-Frame-5" viewBox="0 0 30 32">
<path fill="#0a8bfe" style="fill: var(--color1, #0a8bfe)" d="M25.083 0.315l0.557 5.394 0.117-0.407 0.443 0.294-0.215 0.325 0.216-0.325v0h0l0.001 0.001 0.006 0.004 0.021 0.014 0.165 0.105c0.117 0.079 0.234 0.159 0.194 0.137l0.107 0.069c0.25 0.171 0.497 0.346 0.652 0.462 0.254 0.185 0.53 0.44 0.735 0.64l0.002 0.002c0.11 0.108 0.218 0.217 0.329 0.334l0.020 0.021 0.006 0.006 0.001 0.002 0.001 0v0l0.105 0.112v2.916l0.191 0.144 0.155 0.117v3.566l0.191 0.144 0.155 0.117v17.284l-18.894 0.001v-22.961h2.945v-4.231l1.44-1.179 0.244 0.18-0.232 0.314c0.232-0.314 0.232-0.313 0.232-0.313l0.001 0.001 0.004 0.004 0.016 0.012 0.064 0.047c0.335 0.255 0.664 0.517 0.946 0.754 0.555 0.464 1.235 1.076 1.642 1.607 0.455 0.595 0.796 1.379 1.020 1.993l-0.029-0.090c0.124 0.333 0.234 0.672 0.353 1.108 0.007 0.028 0.014 0.050 0.017 0.065l0.005 0.018 0.001 0.005 0.001 0.001v0.001l0.011 0.046v20.533h0.887v-15.245l0.346-0.174v-3.487l0.346-0.348v-0.55h-0.051v-0.78h0.051v-1.548l0.124-0.116h0l0-0.001 0.002-0.001 0.007-0.006 0.025-0.023-0.014 0.012c0.131-0.12 0.264-0.238 0.421-0.374 0.252-0.217 0.583-0.49 0.875-0.688l0.291-0.188c0.335-0.23 0.668-0.462 0.733-0.517l0.078-0.054 0.443-0.31 0.175 0.475 0.064 0.174 0.471-5.638 0.777-0.008zM21.39 9.907v0.746h6.377v-0.746h-6.377zM27.767 9.127v-1.309c-0.059-0.060-0.138-0.14-0.229-0.23-0.199-0.194-0.443-0.417-0.65-0.568-0.135-0.101-0.356-0.257-0.579-0.411l-0.099-0.064-0.378 1.311-0.763-0.068-0.335-3.241-0.27 3.233-0.755 0.102-0.498-1.352c-0.215 0.149-0.484 0.334-0.724 0.497-0.253 0.172-0.557 0.421-0.804 0.633-0.118 0.102-0.22 0.193-0.295 0.26v1.207h6.377zM21.045 11.433v1.003h7.069v-1.003h-7.070zM21.044 13.217v0.873h7.070v-0.873h-7.069zM20.852 14.87l-0.153 0.077v0.924h7.762v-0.971l-0.041-0.031h-7.568zM20.698 16.652v1.002h7.762v-1.002h-7.762zM20.698 18.434v1.002h7.762v-1.002h-7.762zM20.698 20.215v1.002h7.762v-1.002h-7.762zM20.698 21.998v0.999h7.762v-0.999h-7.762zM20.698 23.777v1.003h7.762v-1.003h-7.762zM20.698 25.561v1.002h7.762v-1.002h-7.762zM20.698 27.343v3.673h2.235v-2.8h3.041v2.8h2.486v-3.673h-7.762zM23.713 28.996v2.020h1.481v-2.020h-1.481zM12.726 29.743h4.132v1.273h2.809v-0.525h-1.417v-21.216l-0.008-0.030c-0.111-0.409-0.214-0.726-0.33-1.037l0.027 0.084c-0.216-0.592-0.524-1.286-0.907-1.786-0.35-0.457-0.97-1.020-1.523-1.483-0.187-0.158-0.416-0.344-0.649-0.525l-0.055-0.042-0.051-0.039-0.682 0.558v5.162h-1.488v-0.522h-1.457v21.401h1.6v-1.274zM13.507 30.522v0.493h2.571v-0.493h-2.571zM2.563 7.599h5.637l1.193 0.79v23.405h-9.059v-2.956h0.96l0.076 0.521c-0.194-1.111-0.368-2.228-0.569-3.801-0.277-2.121-0.54-4.781-0.467-6.876 0.115-3.293 0.579-5.995 1.015-7.876l0.040-0.204c0.174-0.74 0.376-1.47 0.546-1.975l0.036-0.129c0.078-0.243 0.161-0.484 0.208-0.596l0.015-0.039 0.004-0.011 0.001-0.003 0-0.001 0.364 0.14-0.364-0.14 0.096-0.25h0.267zM8.612 28.215v-0.745h-5.025v-2.053h5.025v-0.748h-5.024v-2.053h5.025v-0.746h-5.025v-2.053h5.025v-0.746h-5.025v-2.053h5.025v-0.748h-5.025v-2.053h5.025v-0.747h-5.025v-2.053h5.025v-2.609l-0.647-0.429h-5.127c-0.041 0.119-0.095 0.281-0.158 0.481-0.165 0.492-0.362 1.203-0.532 1.924l-0.039 0.198c-0.427 1.84-0.883 4.491-0.996 7.727-0.071 2.028 0.184 4.634 0.46 6.748 0.208 1.617 0.39 2.783 0.595 3.94l-0.076-0.52 0.037 0.209 0.010 0.053 0.002 0.014 0 0.004v0.001h0l0.085 0.461h-1.113v1.396h7.499v-0.745h-5.024v-2.053h5.025zM8.612 28.996h-4.245v0.493h4.245v-0.493zM8.612 26.691v-0.493h-4.245v0.493h4.245zM8.612 23.396h-4.245v0.493h4.245v-0.493zM8.612 21.090v-0.493h-4.245v0.493h4.245zM8.612 18.291v-0.493h-4.245v0.493h4.245zM8.612 14.997h-4.245v0.493h4.245v-0.492zM8.612 12.69v-0.493h-4.245v0.493h4.245zM13.117 14.471h-0.39v2.053h4.132v-2.053h-3.742zM13.507 15.744v-0.493h2.571v0.493h-2.571zM12.727 11.417h4.132v2.053h-4.132v-2.053zM13.507 12.197v0.493h2.571v-0.493h-2.571zM13.117 17.526h-0.39v2.053h4.132v-2.053h-3.742zM13.507 18.799v-0.493h2.571v0.493h-2.571zM12.727 20.581h4.132v2.053h-4.132v-2.053zM13.507 21.361v0.493h2.571v-0.493h-2.571zM12.727 23.634h4.132v2.053h-4.132v-2.053zM13.507 24.414v0.493h2.571v-0.493h-2.571zM13.117 26.688h-0.39v2.053h4.132v-2.053h-3.742zM13.507 27.961v-0.493h2.571v0.493h-2.571z"></path>
</symbol>
<symbol id="icon-Frame-4" viewBox="0 0 31 32">
<path fill="#0a8bfe" style="fill: var(--color1, #0a8bfe)" d="M29.654 28.25h0.617c0.356 0 0.644 0.28 0.644 0.625v2.5c0 0.345-0.288 0.625-0.644 0.625h-29.627c-0.356 0-0.644-0.279-0.644-0.625v-2.5c0-0.345 0.288-0.625 0.644-0.625h0.617v-11.062h-0.617c-0.356 0-0.644-0.279-0.644-0.625s0.288-0.625 0.644-0.625h0.617v-1.814c0-0.322 0.251-0.587 0.574-0.621-0.091-0.858 0.266-1.73 1.012-2.348l1.935-1.603c0.113-0.093 0.259-0.15 0.418-0.15s0.305 0.056 0.419 0.15l-0.001-0.001 1.936 1.603c0.107 0.089 0.206 0.184 0.297 0.283v-0.802c0-0.345 0.288-0.625 0.644-0.625h0.521c0.248-2.426 1.925-4.451 4.2-5.268v-2.181c0-0.345 0.288-0.625 0.644-0.625h0.952v-1.312c0-0.345 0.288-0.625 0.644-0.625s0.644 0.28 0.644 0.625v1.312h0.952c0.356 0 0.644 0.28 0.644 0.625v2.181c2.276 0.817 3.953 2.842 4.201 5.268h0.52c0.356 0 0.644 0.28 0.644 0.625v0.802c0.092-0.099 0.19-0.194 0.298-0.283l1.935-1.603c0.113-0.093 0.259-0.15 0.418-0.15s0.305 0.056 0.419 0.15l-0.001-0.001 1.936 1.603c0.746 0.618 1.103 1.49 1.011 2.348 0.323 0.034 0.574 0.299 0.574 0.621v1.813h0.617c0.356 0 0.644 0.279 0.644 0.625s-0.288 0.625-0.644 0.625h-0.616v11.061zM26.359 28.25h2.007v-11.062h-5.302v0.759c0.304 0.050 0.535 0.306 0.535 0.616 0 0.309-0.232 0.565-0.536 0.615v9.073h2.008v-7.151c0-0.345 0.288-0.625 0.644-0.625s0.644 0.28 0.644 0.625v7.151zM19.634 25.151v3.099h2.142v-9.063h-12.636v9.063h2.142v-3.099h-0.153c-0.355 0-0.644-0.279-0.644-0.625s0.289-0.625 0.644-0.625h0.203c0.311-1.939 2.043-3.428 4.127-3.428s3.816 1.489 4.126 3.428h0.203c0.356 0 0.644 0.28 0.644 0.625s-0.288 0.625-0.644 0.625h-0.153zM12.642 23.901h5.63c-0.294-1.246-1.444-2.178-2.815-2.178s-2.521 0.932-2.815 2.178zM21.775 14.065v-2.804h-5.677l5.677 2.804zM13.387 15.709h-4.247v2.228h12.635v-2.228h-4.247c-0.275 0.856-1.099 1.478-2.071 1.478s-1.796-0.623-2.070-1.478zM14.577 15.084c0 0.471 0.395 0.854 0.88 0.854s0.88-0.383 0.88-0.854c0-0.471-0.395-0.853-0.88-0.853s-0.88 0.383-0.88 0.853zM17.528 14.459h2.205l-4.276-2.111-4.276 2.112h2.206c0.275-0.856 1.099-1.479 2.070-1.479s1.796 0.623 2.071 1.478zM23.063 15.699v0.239h5.303v-1.188h-4.867c0.063 0.094 0.1 0.21 0.1 0.335v0c0 0.309-0.232 0.565-0.536 0.615zM25.715 10.85l-1.517 1.256c-0.455 0.377-0.651 0.896-0.547 1.393h4.129c0.103-0.497-0.092-1.017-0.548-1.393l-1.517-1.256zM16.41 3.187h-1.905v1.237c0.286-0.043 0.616-0.068 0.952-0.068s0.666 0.025 0.989 0.073l-0.037-0.004v-1.237zM20.601 10.012c-0.318-2.48-2.502-4.406-5.143-4.406s-4.825 1.926-5.144 4.407c0.199 0.002 0.377 0.093 0.493 0.233h3.859c0.12-0.143 0.299-0.234 0.5-0.234 0.001 0 0.002 0 0.003 0h5.432zM14.673 11.034h-3.871c-0.118 0.139-0.296 0.227-0.497 0.227h-1.165v2.804l5.643-2.929c-0.040-0.030-0.078-0.064-0.11-0.102zM5.201 10.85l-1.517 1.256c-0.455 0.377-0.651 0.896-0.547 1.393h4.129c0.103-0.497-0.092-1.017-0.547-1.393l-1.518-1.256zM7.417 14.75h-4.868v1.188h5.303v-0.239c-0.304-0.050-0.535-0.306-0.535-0.615 0-0.125 0.038-0.24 0.102-0.337l-0.001 0.002zM7.852 17.188h-5.302v11.061h2.007v-7.151c0-0.345 0.288-0.625 0.644-0.625s0.644 0.28 0.644 0.625v7.151h2.007v-9.073c-0.304-0.050-0.535-0.306-0.535-0.615s0.231-0.565 0.535-0.616v-0.758zM1.288 30.75h28.339v-1.25h-11.594c-0.355 0-0.644-0.28-0.644-0.625s0.289-0.625 0.644-0.625h0.312v-3.099h-5.776v3.099h0.312c0.356 0 0.644 0.28 0.644 0.625s-0.288 0.625-0.644 0.625h-11.593v1.25z"></path>
</symbol>
<symbol id="icon-Frame-3" viewBox="0 0 21 32">
<path fill="#0a8bfe" style="fill: var(--color1, #0a8bfe)" d="M4.495 0.66c0-0.21-0.17-0.379-0.379-0.379s-0.379 0.17-0.379 0.379v0 0.602h-0.639c-0.21 0-0.379 0.17-0.379 0.379s0.17 0.379 0.379 0.379v0h0.639v0.647l-2.466 6.798 0.048 0.017-0.003 0.005-0.519 0.75-0.001 0.116-0.112 11.686-0.68 0.711v8.944h20.778v-8.952l-0.116-0.112-0.45-0.433v-11.378l-0.036-0.077-0.829-1.759-0.028 0.036-2.386-6.895v-0.104h0.639c0.21 0 0.379-0.17 0.379-0.379s-0.17-0.379-0.379-0.379v0h-0.639v-0.602c0-0.21-0.17-0.379-0.379-0.379s-0.379 0.17-0.379 0.379v0.602h-0.638c-0.21 0-0.379 0.17-0.379 0.379s0.17 0.379 0.379 0.379v0h0.638v0.111l-2.166 7.301-0.048 0.086-0.84 1.504v7.475l-2.521-2.935v-0.789h0.638c0.21 0 0.379-0.17 0.379-0.379s-0.17-0.379-0.379-0.379h-0.638v-0.602c0-0.21-0.17-0.379-0.379-0.379s-0.379 0.17-0.379 0.379v0 0.602h-0.639c-0.21 0-0.379 0.17-0.379 0.379s0.17 0.379 0.379 0.379h0.639v0.794l-2.295 2.766v-1.386h-0.113v-6.463l-0.043-0.082-0.364-0.703 0.045-0.017-2.578-7.016v-0.646h0.638c0.21 0 0.379-0.17 0.379-0.379s-0.17-0.379-0.379-0.379v0h-0.638v-0.602zM16.584 3.428l2.183 6.306-0.554 0.712v1.060h-2.974v-0.688l-0.036-0.077-0.484-1.027 1.865-6.287zM6.22 9.561l-0.788 0.868v1.076h-2.86v-1.289l-0.54-0.625 2.086-5.751 2.102 5.721zM6.789 20.554v6.005h-6.027v-3.505l0.677-0.708 0.001-0.15 0.016-1.643h5.22v0.018l0.015-0.018h0.098zM0.762 30.936v-3.618h6.027v3.618h-0.825v-0.643c0-1.084-0.879-1.963-1.963-1.963s-1.963 0.879-1.963 1.963v0 0.643h-1.277zM5.206 30.936h-2.408v-0.643c0-0.665 0.539-1.204 1.204-1.204s1.204 0.539 1.204 1.204v0.643zM7.548 30.936v-3.618h5.575v3.618h-0.825v-0.054c0-1.042-0.536-1.959-1.347-2.49l-0.011-0.007c-0.158-0.103-0.351-0.164-0.559-0.164-0.196 0-0.38 0.055-0.536 0.15l0.005-0.003c-0.879 0.535-1.461 1.482-1.477 2.566l-0 0.002h-0.825zM9.132 30.936l0-0.002c0.016-0.809 0.452-1.516 1.109-1.916l-0.001 0.001c0.041-0.025 0.090-0.040 0.142-0.040 0.054 0 0.105 0.016 0.147 0.043 0.631 0.408 1.012 1.108 1.012 1.86v0.054h-2.408zM13.882 30.936v-3.618h6.14v3.618h-1.39v-0.643c0-1.084-0.879-1.963-1.963-1.963s-1.963 0.879-1.963 1.963v0.643h-0.825zM17.873 30.293v0.643h-2.408v-0.643c0-0.665 0.539-1.204 1.204-1.204s1.204 0.539 1.204 1.204v0zM13.882 26.56v-6.005h5.575v1.964l0.566 0.546v3.496h-6.141zM7.548 26.56v-6.006h5.575v6.006h-5.575zM6.676 19.521v0.274h-5.213l0.089-9.318 0.108-0.156 0.153 0.177v1.765h4.378v-1.542l0.327-0.36 0.159 0.306v8.852zM13.123 19.796h-5.575v-0.274l2.68-3.23 2.896 3.37v0.134zM19.457 19.796h-5.575v-8.576l0.384-0.688 0.215 0.455v1.277h4.491v-1.558l0.219-0.282 0.266 0.564v8.808zM3.25 14.284v4.145c0 0.21-0.17 0.379-0.379 0.379s-0.379-0.17-0.379-0.379v-4.145c0-0.21 0.17-0.379 0.379-0.379s0.379 0.17 0.379 0.379zM5.286 14.284v4.145c0 0.21-0.17 0.379-0.379 0.379s-0.379-0.17-0.379-0.379v-4.145c0-0.21 0.17-0.379 0.379-0.379s0.379 0.17 0.379 0.379zM15.538 13.904c-0.21 0-0.379 0.17-0.379 0.379v4.145c0 0.21 0.17 0.379 0.379 0.379s0.379-0.17 0.379-0.379v-4.145c0-0.21-0.17-0.379-0.379-0.379zM17.953 14.284v4.145c0 0.21-0.17 0.379-0.379 0.379s-0.379-0.17-0.379-0.379v-4.145c0-0.21 0.17-0.379 0.379-0.379s0.379 0.17 0.379 0.379zM17.026 21.192l-0.259-0.216-0.847 0.8c-0.748 0.709-1.214 1.709-1.214 2.818 0 0 0 0 0 0v0 0.977h4.152v-1.036c0-1.15-0.511-2.241-1.394-2.978l-0.439-0.366zM16.442 22.327l0.357-0.337 0.18 0.15c0.687 0.576 1.121 1.435 1.121 2.395v0 0.277h-2.635v-0.219c0-0.858 0.353-1.678 0.976-2.267zM3.874 20.976l0.697 0.582c0.855 0.716 1.394 1.784 1.394 2.978v0 1.036h-4.152v-0.977c0-1.067 0.439-2.086 1.214-2.818l0.846-0.8zM3.905 21.991l-0.356 0.337c-0.602 0.57-0.977 1.375-0.977 2.267v0 0.219h2.634v-0.277c-0-0.96-0.434-1.819-1.116-2.391l-0.005-0.004-0.18-0.15zM9.799 21.694c0.135-0.032 0.277-0.049 0.424-0.049 0.182 0 0.357 0.026 0.521 0.074l-0.325 0.494c-0.059-0.011-0.127-0.018-0.196-0.018-0.032 0-0.063 0.001-0.094 0.004l0.004-0-0.333-0.505zM11.245 22.959c-0.036-0.13-0.097-0.249-0.177-0.353l0.344-0.522 0.002 0.002c0.257 0.222 0.446 0.521 0.534 0.872h-0.703zM11.948 23.718l-0.002 0.012c-0.080 0.32-0.252 0.604-0.488 0.823l-0.43-0.651c0.050-0.056 0.092-0.117 0.129-0.183h0.791zM10.223 24.263c0.044 0 0.087-0.003 0.13-0.008l0.451 0.684c-0.172 0.059-0.371 0.093-0.578 0.093-0.001 0-0.002 0-0.004 0h0c-0.001 0-0.002 0-0.003 0-0.172 0-0.338-0.023-0.496-0.067l0.013 0.003 0.465-0.705h0.022zM9.486 23.97l-0.426 0.645c-0.272-0.227-0.471-0.535-0.559-0.886l-0.002-0.012h0.792c0.052 0.094 0.118 0.179 0.196 0.252zM9.201 22.959h-0.703c0.096-0.382 0.312-0.704 0.605-0.932l0.004-0.003 0.334 0.508c-0.112 0.119-0.196 0.265-0.241 0.427zM10.223 20.887c-1.383 0-2.528 1.085-2.528 2.452s1.145 2.452 2.528 2.452 2.528-1.085 2.528-2.452c0-1.367-1.145-2.452-2.528-2.452zM10.223 22.954c0.178 0 0.299 0.136 0.299 0.275s-0.121 0.275-0.299 0.275c-0.178 0-0.299-0.136-0.299-0.275s0.121-0.275 0.299-0.275z"></path>
</symbol>
<symbol id="icon-Frame-2" viewBox="0 0 32 32">
<path fill="#0a8bfe" style="fill: var(--color1, #0a8bfe)" d="M30.266 19.499v-3.079h-9.080v-9.749h-2.522v-2.053h-1.15l-1.009-3.079h-0.363v-1.54h-1.009v1.54h-0.364l-1.009 3.079h-1.15v2.052h-2.522v9.749h-9.079v3.079h-1.009v12.315h31.275v-12.315h-1.009zM18.16 26.683h-5.044v-3.592c0-1.415 1.132-2.565 2.522-2.565s2.522 1.151 2.522 2.565v3.592zM15.637 19.499c-1.947 0-3.531 1.612-3.531 3.592v3.592h-3.027v-6.407l6.558-4.765 6.558 4.765v6.407h-3.027v-3.592c0-1.98-1.584-3.592-3.531-3.592zM13.115 12.315c0-1.415 1.132-2.565 2.522-2.565s2.522 1.151 2.522 2.566c0 1.139-0.753 2.134-1.811 2.452l-0.711-0.517-0.712 0.517c-1.058-0.318-1.811-1.311-1.811-2.452zM23.204 20.526h7.062v6.158h-7.062v-6.158zM29.257 17.447v2.053h-6.396l-1.675-1.217v-0.835h8.070zM15.497 2.566h0.282l0.672 2.053h-1.627l0.672-2.053zM13.62 5.645h4.035v1.026h-4.035v-1.026zM12.611 7.698h7.566v9.852l-2.867-2.083c1.115-0.627 1.856-1.802 1.859-3.15v-0c0-1.981-1.584-3.592-3.531-3.592s-3.531 1.611-3.531 3.592c0.001 1.349 0.743 2.524 1.84 3.141l0.018 0.009-2.867 2.084v-9.853h1.513zM2.018 17.446h8.071v0.835l-1.675 1.218h-6.396v-2.053zM8.071 20.525v6.158h-7.062v-6.158h7.062zM4.035 30.788h-1.008v-1.026h1.009v1.026zM8.070 30.788h-1.009v-1.026h1.009v1.026zM12.106 30.788h-1.009v-1.026h1.009v1.026zM16.141 30.788h-1.009v-1.026h1.009v1.026zM20.177 30.788h-1.008v-1.026h1.009v1.026zM24.212 30.788h-1.008v-1.026h1.009v1.026zM28.248 30.788h-1.009v-1.026h1.009v1.026zM29.257 30.788v-2.053h-3.026v2.053h-1.009v-2.053h-3.027v2.053h-1.008v-2.053h-3.027v2.053h-1.009v-2.053h-3.027v2.053h-1.009v-2.053h-3.027v2.053h-1.009v-2.053h-3.027v2.053h-1.009v-2.053h-3.027v2.053h-1.009v-3.079h29.257v3.079h-1.010z"></path>
</symbol>
<symbol id="icon-Frame-1" viewBox="0 0 26 32">
<path fill="#0a8bfe" style="fill: var(--color1, #0a8bfe)" d="M25.303 22.362h-0.429v-1.242l0.853-5.908c0.003-0.018 0.004-0.039 0.004-0.060 0-0.107-0.040-0.204-0.105-0.278l0 0c-0.079-0.090-0.194-0.146-0.322-0.146-0.001 0-0.001 0-0.002 0h-0.858c-0.007-0-0.014-0-0.022-0-1.4 0-2.68 0.516-3.66 1.369l0.007-0.006 1.095-5.953c0.004-0.023 0.007-0.049 0.007-0.076 0-0.104-0.038-0.199-0.1-0.272l0 0.001c-0.079-0.093-0.196-0.152-0.328-0.152-0.001 0-0.001 0-0.002 0h-0.858c-0.005 0-0.011-0-0.017-0-1.431 0-2.767 0.412-3.893 1.125l0.030-0.018c-0.838-1.127-1.907-2.035-3.142-2.665l-0.051-0.024c-1.184-0.607-2.584-0.963-4.067-0.963-0.004 0-0.008 0-0.012 0h-0.857c-0.129 0-0.244 0.056-0.324 0.146l-0 0c-0.065 0.074-0.105 0.172-0.105 0.279 0 0.021 0.002 0.041 0.004 0.061l-0-0.002 0.459 3.176c-1.105-0.7-2.451-1.115-3.893-1.115-0 0-0 0-0 0h-0.858c-0.132 0-0.249 0.059-0.329 0.152l-0.001 0.001c-0.062 0.073-0.099 0.168-0.099 0.272 0 0.027 0.002 0.053 0.007 0.078l-0-0.003 0.591 3.217c-0.561-0.205-1.209-0.324-1.885-0.324h-1.716c-0.139 0-0.263 0.066-0.342 0.168l-0.001 0.001c-0.054 0.070-0.086 0.159-0.086 0.256 0 0.041 0.006 0.081 0.017 0.119l-0.001-0.003 1.559 5.397h-0.289c-0.114 0-0.223 0.045-0.303 0.124s-0.125 0.187-0.125 0.3v2.969h-0.429c-0.114 0-0.223 0.045-0.303 0.124s-0.125 0.187-0.125 0.3v1.696c0 0.113 0.045 0.22 0.125 0.3s0.19 0.124 0.303 0.124h24.874c0.114 0 0.223-0.045 0.303-0.124s0.125-0.187 0.125-0.3v-1.697c0-0.112-0.045-0.22-0.125-0.3-0.078-0.077-0.185-0.124-0.303-0.124-0 0-0.001 0-0.001 0h0zM18.012 22.362v-1.272c0-0.113-0.045-0.22-0.125-0.3-0.078-0.077-0.185-0.124-0.303-0.124-0 0-0.001 0-0.001 0h-1.715c-0.114 0-0.223 0.045-0.303 0.124s-0.125 0.188-0.125 0.3v1.272h-1.715v-1.272c0-0.113-0.045-0.22-0.125-0.3-0.078-0.077-0.185-0.124-0.303-0.124-0 0-0.001 0-0.001 0h-1.715c-0.114 0-0.223 0.045-0.303 0.124s-0.125 0.188-0.125 0.3v1.272h-4.54l-3.306-3.269c-0.077-0.077-0.184-0.124-0.302-0.124-0.001 0-0.001 0-0.002 0h-0.429v-0.848h2.144c0.085 0 0.168-0.025 0.238-0.071l1.179-0.777h2.713l2.882 2.443c0.078 0.066 0.177 0.102 0.279 0.102h10.142l1.866 1.476v1.069h-6.004zM17.155 22.362h-0.858v-0.849h0.858v0.849zM12.866 22.362h-0.858v-0.849h0.858v0.849zM17.584 18.969h-1.715v-2.608l1.715 2.121v0.488zM15.010 18.969h-2.11l2.11-2.608v2.608zM24.445 15.576h0.363l-0.682 4.719-1.558-1.233c-0.073-0.058-0.166-0.093-0.268-0.093 0 0 0 0 0 0h-2.395c0.295-1.006 0.891-1.846 1.682-2.441l0.012-0.009c0.782-0.589 1.771-0.944 2.841-0.944 0.001 0 0.003 0 0.004 0h-0zM20.929 10.486l-1.275 6.935c-0.265 0.43-0.478 0.928-0.613 1.457l-0.008 0.037-0.591-0.731v-2.184c0-0.002 0-0.005 0-0.008 0-1.677-0.47-3.245-1.284-4.579l0.022 0.039c0.964-0.606 2.136-0.966 3.391-0.966 0.005 0 0.011 0 0.016 0h0.343zM9.435 7.941c1.070 0 2.13 0.208 3.119 0.613 1.028 0.427 1.906 1.017 2.645 1.748l-0.001-0.001c0.737 0.728 1.333 1.597 1.746 2.562l0.020 0.052c0.392 0.91 0.62 1.97 0.62 3.083 0 0.001 0 0.001 0 0.002v-0 1.124l-1.809-2.237c-0.079-0.098-0.199-0.159-0.333-0.159-0.001 0-0.001 0-0.002 0h0c-0.135 0-0.255 0.062-0.334 0.159l-0.001 0.001-3.154 3.899-1.496-1.268-1.383-9.577h0.363zM4.718 10.486c1.48 0 2.914 0.505 4.062 1.428l0.688 4.766-0.182-0.155c-0.078-0.066-0.177-0.102-0.279-0.102h-3.002c-0.089 0-0.171 0.027-0.239 0.073l0.002-0.001-0.257 0.169-1.136-6.179h0.344zM2.144 13.879c0.717 0 1.423 0.162 2.068 0.471l0.52 2.827-0.144 0.095h-2.443c-0.054 0-0.108 0.010-0.158 0.030l-0.989-3.423h1.147zM1.715 19.817h1.109l2.573 2.545h-3.682v-2.545zM24.874 24.059h-24.017v-0.849h24.017v0.849z"></path>
</symbol>
</defs>
</svg>
